<svg width="1920" height="1080" viewBox="0 0 1920 1080" fill="none" xmlns="http://www.w3.org/2000/svg">
<g clip-path="url(#clip0)">
<path d="M1385.59 851.54C1368.4 851.54 1351.4 851.7 1334.59 852.02C1219.94 854.18 1105.2 850.3 991.49 839.33C898.24 830.33 792.49 825.26 680.34 825.26C304.6 825.26 0 882.28 0 952.63C0 1022.98 304.6 1080 680.35 1080C774.66 1080 864.48 1076.41 946.14 1069.91C1060.97 1060.74 1176.23 1058.16 1291.36 1062.18C1321.95 1063.26 1353.44 1063.82 1385.59 1063.82C1680.74 1063.82 1920 1016.3 1920 957.68C1920 899.06 1680.73 851.54 1385.59 851.54V851.54Z" fill="#F4F6F8"/>
<path d="M590.05 910.39H622.7V946.25H590.05V910.39Z" fill="#F3B385"/>
<path d="M456.68 910.22H489.33V946.08H456.68V910.22Z" fill="#F3B385"/>
<path d="M588.49 183.24C588.488 181.854 588.313 180.473 587.97 179.13C587.9 178.88 587.82 178.64 587.73 178.42V178.36C586.16 174.24 582.8 174.36 580.44 174.99H580.27C579.659 175.17 579.063 175.401 578.49 175.68H578.41L578.29 175.74L578 176H577.94C577.87 173.815 577.926 171.628 578.11 169.45C578.11 169.11 578.18 168.78 578.22 168.45C579.003 161.73 579.077 154.946 578.44 148.21V148.03C578.4 147.67 578.357 147.31 578.31 146.95V146.6C578.263 146.227 578.21 145.857 578.15 145.49C578.15 145.23 578.06 144.96 578.02 144.7L577.97 144.38C577.81 143.447 577.62 142.53 577.4 141.63V141.56C577.34 141.3 577.27 141.04 577.2 140.78L577.04 140.18L576.85 139.53C576.757 139.23 576.663 138.937 576.57 138.65L576.48 138.4C575.614 135.492 573.992 132.866 571.78 130.79C570.673 129.838 569.507 128.957 568.29 128.15C568.277 128.144 568.264 128.142 568.25 128.142C568.236 128.142 568.223 128.144 568.21 128.15C567.57 127.72 566.92 127.32 566.26 126.93C558.236 122.732 549.315 120.54 540.26 120.54C531.205 120.54 522.284 122.732 514.26 126.93C513.6 127.32 512.95 127.72 512.31 128.15C512.297 128.144 512.284 128.142 512.27 128.142C512.256 128.142 512.243 128.144 512.23 128.15C511.013 128.957 509.847 129.838 508.74 130.79C506.528 132.866 504.906 135.492 504.04 138.4L503.95 138.65C503.85 138.943 503.757 139.237 503.67 139.53C503.6 139.75 503.54 139.96 503.48 140.18L503.32 140.78C503.253 141.04 503.187 141.3 503.12 141.56V141.63C502.907 142.53 502.72 143.447 502.56 144.38L502.51 144.7C502.51 144.96 502.42 145.23 502.38 145.49C502.34 145.75 502.27 146.23 502.22 146.6V146.95C502.173 147.31 502.13 147.67 502.09 148.03V148.21C501.454 154.942 501.528 161.723 502.31 168.44C502.37 168.88 502.41 169.33 502.45 169.78C502.61 171.846 502.657 173.919 502.59 175.99H502.53L502.25 175.84L502.13 175.78H502.05C501.393 175.456 500.707 175.194 500 175H499.83C497.48 174.33 494.11 174.25 492.54 178.37V178.43C492.46 178.66 492.37 178.89 492.3 179.14C492.032 180.143 491.871 181.173 491.82 182.21C491.82 182.55 491.82 182.883 491.82 183.21C491.82 183.537 491.82 183.903 491.82 184.31C491.82 184.497 491.82 184.687 491.82 184.88C492.1 194.14 496.15 208.03 502.82 208.2C503.403 208.213 503.985 208.129 504.54 207.95L504.19 221.75L503.99 229.63C503.99 229.63 503.99 229.63 503.99 229.69C503.959 231.071 504.469 232.409 505.41 233.42C508.115 236.324 511.134 238.92 514.41 241.16L515.41 241.83C522.718 246.722 531.326 249.307 540.12 249.25C551.37 249.46 560.52 244.97 566.81 240.49C569.733 238.413 572.44 236.048 574.89 233.43C575.836 232.414 576.346 231.068 576.31 229.68C576.31 229.68 576.31 229.68 576.31 229.68L576.15 223.18L575.77 208C576.325 208.179 576.907 208.263 577.49 208.25C584.01 208.08 588.03 194.76 588.49 185.51C588.5 184.72 588.51 184 588.49 183.24V183.24Z" fill="#F3B385"/>
<path d="M533.83 174L535.03 179.15C535.03 179.15 523.87 174.34 518.89 174.86C513.91 175.38 507.89 179.15 507.89 179.15C507.89 179.15 511.89 170.73 517.68 170.22C523.47 169.71 533.83 174 533.83 174Z" fill="#000009"/>
<path d="M545 174L543.8 179.15C543.8 179.15 555 174.31 560 174.82C565 175.33 571 179.11 571 179.11C571 179.11 567 170.69 561.21 170.18C555.42 169.67 545 174 545 174V174Z" fill="#000009"/>
<path d="M540.76 292.69H540.28C507.8 292.69 505.17 265.84 508.72 263.6C511.19 262.04 515.35 252.37 516.92 248.39C517.6 246.66 518.02 245.47 518.02 245.47H563.02C563.02 245.47 563.44 246.66 564.12 248.38C565.69 252.38 569.85 262.03 572.33 263.59C575.86 265.84 573.24 292.69 540.76 292.69V292.69Z" fill="#F3B385"/>
<path d="M574.84 181.84V206.4C574.831 209.102 574.11 211.755 572.75 214.09L558.13 231.35C557.997 231.483 557.828 231.576 557.644 231.617C557.461 231.659 557.269 231.647 557.091 231.585C556.914 231.522 556.757 231.41 556.64 231.263C556.523 231.115 556.45 230.937 556.43 230.75V220.69C556.433 220.495 556.396 220.301 556.323 220.12C556.249 219.94 556.14 219.775 556.002 219.637C555.865 219.5 555.7 219.391 555.52 219.317C555.339 219.244 555.145 219.207 554.95 219.21L540.55 219.4H540.49L526.09 219.21C525.893 219.206 525.697 219.241 525.514 219.314C525.331 219.387 525.165 219.495 525.024 219.633C524.883 219.771 524.772 219.935 524.695 220.117C524.619 220.298 524.58 220.493 524.58 220.69V230.75C524.557 230.933 524.483 231.107 524.367 231.251C524.252 231.395 524.098 231.504 523.924 231.566C523.75 231.628 523.562 231.641 523.382 231.603C523.201 231.565 523.034 231.477 522.9 231.35L508.28 214.09C506.91 211.75 506.19 184.57 506.19 181.85H503.41V231.7C503.407 233.141 503.798 234.555 504.54 235.79C507.75 241.34 520.64 256.04 540.48 256.07H540.54C560.38 256.07 573.24 241.34 576.48 235.79C577.2 234.547 577.58 233.136 577.58 231.7V181.84H574.84ZM550.9 236.68C540.21 245.94 530.13 236.68 530.13 236.68V227.23C530.13 225.66 530.79 224.4 531.61 224.4H549.42C550.24 224.4 550.9 225.66 550.9 227.23V236.68Z" fill="#000009"/>
<path opacity="0.15" d="M563 245.47H518C518 245.47 517.58 246.66 516.9 248.39C522.29 253.81 530.32 259.09 540.48 259.11C550.64 259.11 559.56 256 564.95 250.58C564.33 248.85 563 245.47 563 245.47Z" fill="#000009"/>
<path d="M619.11 519.39C619.11 519.39 618.68 658.89 618.5 697.98C618.22 757.47 626.91 872.63 629.69 903.21C629.833 904.689 629.437 906.17 628.575 907.381C627.714 908.591 626.444 909.45 625 909.8C616.12 911.95 597.45 915.41 585.24 910.3C584.194 909.872 583.28 909.175 582.591 908.279C581.903 907.383 581.464 906.321 581.32 905.2L540.13 580.73L499 905.2C498.856 906.321 498.417 907.383 497.729 908.279C497.04 909.175 496.126 909.872 495.08 910.3C482.87 915.41 464.21 911.95 455.32 909.8C453.874 909.455 452.601 908.599 451.736 907.39C450.87 906.181 450.471 904.7 450.61 903.22C453.39 872.63 461.49 736.44 461.46 697.99C461.46 658.9 461.2 519.4 461.2 519.4L619.11 519.39Z" fill="#0078D4"/>
<path opacity="0.15" d="M452.62 518.72L508.71 269.61C508.71 269.61 535.3 298.7 540.27 298.7C545.58 298.7 572.27 269.61 572.27 269.61L582.68 288.2L588.45 325.74C588.45 325.74 630.71 512.29 627.59 518.74C627.64 518.72 532.42 553.6 452.62 518.72V518.72Z" fill="#000009"/>
<path d="M583 166.62C582.47 169.8 582.8 174.37 580.54 175.11C579.639 175.414 578.755 175.765 577.89 176.16L577.56 181.84H574.81C574.81 181.84 576.12 168.84 574.88 164.84C574.018 162.28 572.612 159.936 570.76 157.97L572.28 147.12C572.28 147.12 563.76 131.59 552.77 132.83C541.78 134.07 531.9 141.76 520.5 139.83C509.1 137.9 505.8 148.61 506.62 151.65C507.44 154.69 509.62 155.49 508 164.14C506.38 172.79 506.5 176.71 506.16 181.85H503.38C503.304 179.953 502.967 178.076 502.38 176.27C502.24 175.96 500.03 175.86 499.8 175.02C498.38 169.94 497.14 155.39 498.1 149.62C499.19 142.88 504.29 137.21 505.78 131.34C506.3 129.34 509.71 116.56 526.32 112.57C542.93 108.58 558.8 115.57 559.63 122.14C559.63 122.14 569.8 122.01 576.11 133.27C582.42 144.53 584.11 160 583 166.62V166.62Z" fill="#000009"/>
<path d="M452.62 512.71L508.71 263.6C508.71 263.6 535.3 292.69 540.27 292.69C545.58 292.69 572.27 263.6 572.27 263.6L582.68 282.19L588.45 319.73C588.45 319.73 630.71 506.28 627.59 512.73C627.64 512.71 532.42 547.58 452.62 512.71V512.71Z" fill="#FFCC01"/>
<path d="M642.31 535.7L638.87 544.23C627.31 553.95 625.41 563.31 606.87 576.5C588.33 589.69 604.15 555.69 608.47 547.37C608.47 547.37 620.56 525.53 624.04 521.55C628.12 516.87 642.31 535.7 642.31 535.7V535.7Z" fill="#F3B385"/>
<path d="M572.32 263.59C572.32 263.59 640.43 271.08 650.51 291.03C657.43 304.74 700.38 393.78 691.51 413.2C682.64 432.62 674.09 503.84 629.51 556.37L618.21 529.19C618.21 529.19 624.28 482.06 659.26 405.14L615.16 327.58C615.16 327.58 608.16 375.58 614.32 396.52C620.48 417.46 643.32 499.08 631.94 528.2C621.17 528.2 606.94 529.06 597.27 504.43C597.27 504.43 590.82 484.9 581.75 460.04C572.68 435.18 551.75 362.04 558.83 332.79C565.91 303.54 572.32 263.59 572.32 263.59V263.59Z" fill="#0078D4"/>
<path opacity="0.15" d="M619.16 523.91C619.16 523.91 621.24 511.26 631.95 474.99" stroke="#000009" stroke-width="3.12" stroke-linecap="round" stroke-linejoin="round"/>
<path d="M605.25 546.51L616.87 573.01V592.51H585.87V550.15L605.25 546.51Z" fill="#0078D4"/>
<path opacity="0.15" d="M603.63 546.63L615.26 573.13" stroke="#000009" stroke-width="3.12" stroke-linecap="round" stroke-linejoin="round"/>
<path opacity="0.15" d="M505.31 294L525.15 299C527.972 296.54 530.981 294.303 534.15 292.31C537.88 290.18 553.69 272.92 554.81 268.87C555.93 264.82 559.15 264.64 556.72 260.43C554.29 256.22 556.44 253.16 550.58 252.43C550.58 252.43 550.5 242.43 541.37 244.05C541.37 244.05 535.76 243.27 536.37 240.56C536.98 237.85 533.7 228.67 529.26 233.06C524.82 237.45 511.13 252.06 510.49 257.06C509.85 262.06 505.31 294 505.31 294V294Z" fill="#000009"/>
<path d="M506.66 292.36L525.34 297C527.983 294.685 530.802 292.579 533.77 290.7C537.28 288.7 552.17 272.44 553.23 268.62C554.29 264.8 557.32 264.62 555.02 260.67C552.72 256.72 554.76 253.82 549.24 253.15C549.24 253.15 549.16 243.71 540.56 245.26C540.56 245.26 535.28 244.53 535.86 241.97C536.44 239.41 533.35 230.77 529.16 234.91C524.97 239.05 512.09 252.81 511.49 257.54C510.89 262.27 506.66 292.36 506.66 292.36V292.36Z" fill="#F3B385"/>
<path d="M441.52 316.48C461.41 282.18 508.71 263.59 508.71 263.59C508.71 263.59 515.13 303.59 522.19 332.8C529.25 362.01 508.33 435.19 499.27 460.05C493.96 474.717 487.827 489.073 480.9 503.05C471.22 527.68 451.33 544.82 446.61 539.2C435.2 510 438.08 463.9 444.26 443L441.52 316.48Z" fill="#0078D4"/>
<path d="M479 282.19C479 282.19 440.8 305.49 439.91 322.19C439.02 338.89 419.43 438.19 446.61 453.96C470 467.53 520.24 337.24 534 300.08C535.163 296.996 535.305 293.621 534.405 290.45C533.505 287.28 531.61 284.482 529 282.47C523.58 278.36 516 274.15 507.83 274.01C504.494 274.016 501.251 275.108 498.591 277.122C495.932 279.136 494.001 281.961 493.09 285.17L466.37 375.23L479 282.19Z" fill="#0078D4"/>
<path opacity="0.15" d="M493.1 285.17L466.38 375.23L479.02 282.19" stroke="#000009" stroke-width="3.12" stroke-linecap="round" stroke-linejoin="round"/>
<path opacity="0.15" d="M446.63 454C469.96 467.54 508.13 368.76 521.89 331.6" stroke="#000009" stroke-width="3.12" stroke-linecap="round" stroke-linejoin="round"/>
<path d="M500.95 968.55V973.4C500.95 973.7 500.831 973.987 500.619 974.199C500.407 974.411 500.12 974.53 499.82 974.53H446.2C445.9 974.53 445.613 974.411 445.401 974.199C445.189 973.987 445.07 973.7 445.07 973.4V968.55H500.95Z" fill="#2D3D56"/>
<path d="M454.87 930.72H491.4V949.45H454.87V930.72Z" fill="#3E4C71"/>
<path d="M634.31 968.55V973.4C634.31 973.7 634.191 973.987 633.979 974.199C633.767 974.411 633.48 974.53 633.18 974.53H579.56C579.26 974.53 578.973 974.411 578.761 974.199C578.549 973.987 578.43 973.7 578.43 973.4V968.55H634.31Z" fill="#2D3D56"/>
<path d="M588.25 930.72H624.78V949.45H588.25V930.72Z" fill="#3E4C71"/>
<path d="M445.07 968.55C445.07 968.55 443.23 944.86 473.01 944.86C502.79 944.86 500.95 968.55 500.95 968.55H445.07Z" fill="#5D6B9A"/>
<path d="M578.43 968.55C578.43 968.55 576.59 944.86 606.37 944.86C636.15 944.86 634.31 968.55 634.31 968.55H578.43Z" fill="#5D6B9A"/>
<path d="M402.22 493.03H295.92C282.389 493.03 271.42 503.999 271.42 517.53V679.48C271.42 693.011 282.389 703.98 295.92 703.98H402.22C415.751 703.98 426.72 693.011 426.72 679.48V517.53C426.72 503.999 415.751 493.03 402.22 493.03Z" fill="#231F20"/>
<path d="M395.46 506.45H302.68C290.872 506.45 281.3 516.022 281.3 527.83V669.18C281.3 680.988 290.872 690.56 302.68 690.56H395.46C407.268 690.56 416.84 680.988 416.84 669.18V527.83C416.84 516.022 407.268 506.45 395.46 506.45Z" fill="#2C7AE8"/>
<path d="M275.25 943.83C281.8 943.83 287.11 938.52 287.11 931.97C287.11 925.42 281.8 920.11 275.25 920.11C268.7 920.11 263.39 925.42 263.39 931.97C263.39 938.52 268.7 943.83 275.25 943.83Z" fill="#231F20"/>
<path d="M248.99 772.76H439.01V782.49H248.99V772.76Z" fill="#231F20"/>
<path d="M329.42 782.5H368.71V796.82H329.42V782.5Z" fill="#231F20"/>
<path d="M342.9 796.82H355.23V895.84H342.9V796.82Z" fill="#231F20"/>
<path d="M417.93 943.83C424.48 943.83 429.79 938.52 429.79 931.97C429.79 925.42 424.48 920.11 417.93 920.11C411.38 920.11 406.07 925.42 406.07 931.97C406.07 938.52 411.38 943.83 417.93 943.83Z" fill="#231F20"/>
<path d="M425.24 932C425.245 933.512 425.091 935.02 424.78 936.5C420.57 915.93 387.78 899.92 347.95 899.92C308.12 899.92 275.38 915.92 271.17 936.5C270.859 935.02 270.705 933.512 270.71 932C270.71 909.32 305.29 890.94 347.96 890.94C390.63 890.94 425.24 909.29 425.24 932V932Z" fill="#231F20"/>
<path d="M341.64 703.98H356.48V773.16H341.64V703.98Z" fill="#231F20"/>
<path opacity="0.3" d="M274.59 944.6C282.797 944.6 289.45 944.246 289.45 943.81C289.45 943.374 282.797 943.02 274.59 943.02C266.383 943.02 259.73 943.374 259.73 943.81C259.73 944.246 266.383 944.6 274.59 944.6Z" fill="black"/>
<path opacity="0.3" d="M417.93 944.6C426.137 944.6 432.79 944.246 432.79 943.81C432.79 943.374 426.137 943.02 417.93 943.02C409.723 943.02 403.07 943.374 403.07 943.81C403.07 944.246 409.723 944.6 417.93 944.6Z" fill="black"/>
<path d="M334.25 480.25H119.33C119.224 480.248 119.123 480.207 119.046 480.135C118.968 480.063 118.92 479.965 118.91 479.86L118.76 477.65C118.756 477.6 118.762 477.55 118.778 477.503C118.794 477.456 118.82 477.413 118.854 477.376C118.888 477.339 118.929 477.31 118.975 477.29C119.021 477.27 119.07 477.26 119.12 477.26H334C334.106 477.262 334.207 477.303 334.284 477.375C334.362 477.447 334.41 477.545 334.42 477.65L334.57 479.86C334.578 479.954 334.55 480.047 334.49 480.12C334.43 480.193 334.344 480.24 334.25 480.25Z" fill="#808285"/>
<path d="M316.8 480.25H136.78L136.57 477.26H316.6L316.8 480.25Z" fill="#414042"/>
<path d="M139.85 477.06C139.328 477.045 138.829 476.84 138.447 476.482C138.066 476.125 137.829 475.64 137.78 475.12L130.27 367.67C130.202 366.938 130.29 366.201 130.527 365.505C130.764 364.81 131.145 364.172 131.645 363.634C132.145 363.096 132.753 362.67 133.43 362.383C134.106 362.096 134.835 361.956 135.57 361.97H301.28C302.874 361.994 304.402 362.611 305.566 363.7C306.731 364.788 307.449 366.271 307.58 367.86L315.09 475.31C315.113 475.534 315.088 475.761 315.016 475.975C314.944 476.189 314.828 476.385 314.675 476.551C314.522 476.716 314.335 476.847 314.127 476.935C313.92 477.023 313.695 477.065 313.47 477.06H139.85Z" fill="#808285"/>
<path d="M301.28 363.34C302.526 363.374 303.716 363.862 304.626 364.713C305.536 365.564 306.103 366.719 306.22 367.96L313.73 475.41C313.736 475.449 313.734 475.489 313.723 475.526C313.713 475.564 313.695 475.6 313.67 475.63C313.642 475.656 313.609 475.675 313.573 475.688C313.536 475.7 313.498 475.704 313.46 475.7H139.85C139.672 475.688 139.505 475.614 139.375 475.492C139.246 475.37 139.163 475.207 139.14 475.03L131.63 367.58C131.576 367.035 131.638 366.485 131.813 365.967C131.988 365.448 132.271 364.972 132.644 364.571C133.016 364.17 133.47 363.853 133.974 363.641C134.479 363.429 135.023 363.326 135.57 363.34H301.28ZM301.28 360.62H135.57C134.649 360.607 133.735 360.787 132.887 361.149C132.04 361.511 131.278 362.046 130.65 362.721C130.022 363.396 129.543 364.195 129.244 365.066C128.944 365.937 128.83 366.862 128.91 367.78L136.42 475.23C136.492 476.094 136.883 476.901 137.517 477.492C138.151 478.084 138.983 478.418 139.85 478.43H313.47C313.881 478.431 314.289 478.347 314.666 478.184C315.044 478.021 315.384 477.782 315.665 477.482C315.947 477.182 316.163 476.827 316.302 476.44C316.44 476.052 316.497 475.64 316.47 475.23L308.96 367.78C308.803 365.847 307.932 364.042 306.515 362.718C305.098 361.394 303.239 360.646 301.3 360.62H301.28Z" fill="#58595B"/>
<path opacity="0.03" d="M312.09 475.09L132.42 370.23L132.25 367.75C132.208 367.26 132.269 366.766 132.43 366.301C132.59 365.836 132.847 365.41 133.182 365.05C133.518 364.69 133.925 364.404 134.377 364.211C134.83 364.018 135.318 363.923 135.81 363.93H301.5C302.548 363.947 303.552 364.354 304.316 365.071C305.079 365.789 305.548 366.765 305.63 367.81L305.82 370.69L313.06 474.23C313.07 474.342 313.056 474.454 313.02 474.56C312.983 474.666 312.925 474.763 312.849 474.845C312.772 474.927 312.68 474.992 312.576 475.036C312.473 475.08 312.362 475.102 312.25 475.1L312.09 475.09Z" fill="white"/>
<path d="M226.69 512.12H288.48L258.13 480.25H226.69H195.25L164.89 512.12H226.69Z" fill="#464648"/>
<path d="M372.53 512.12H648C648.352 512.124 648.696 512.017 648.983 511.813C649.269 511.609 649.484 511.319 649.595 510.985C649.706 510.651 649.709 510.291 649.602 509.955C649.495 509.62 649.284 509.328 649 509.12L647.39 508C645.689 506.724 643.626 506.024 641.5 506H379C376.883 506 374.821 506.673 373.11 507.92L371.54 509.07C371.234 509.269 371.001 509.563 370.879 509.908C370.757 510.252 370.752 510.627 370.865 510.975C370.978 511.322 371.202 511.623 371.503 511.83C371.804 512.037 372.165 512.139 372.53 512.12V512.12Z" fill="#808285"/>
<path d="M316.87 512.12H352.35C352.35 506.51 344.41 501.96 334.6 501.96C324.79 501.96 316.87 506.51 316.87 512.12Z" fill="#808285"/>
<path d="M588.68 469.95H869.06C871.558 469.923 873.956 468.961 875.78 467.255C877.605 465.548 878.725 463.221 878.92 460.73L892.12 272C892.224 270.818 892.078 269.628 891.693 268.506C891.308 267.384 890.691 266.355 889.884 265.486C889.076 264.617 888.095 263.927 887.004 263.461C885.913 262.995 884.736 262.763 883.55 262.78H603.17C600.67 262.805 598.27 263.765 596.443 265.472C594.616 267.179 593.495 269.508 593.3 272L580.1 460.75C579.999 461.931 580.147 463.12 580.534 464.241C580.921 465.361 581.539 466.388 582.348 467.255C583.156 468.122 584.137 468.809 585.228 469.274C586.319 469.738 587.495 469.968 588.68 469.95V469.95Z" fill="#808285"/>
<path opacity="0.03" d="M869.06 469.95C871.558 469.923 873.956 468.961 875.78 467.255C877.605 465.548 878.725 463.221 878.92 460.73L892.12 272C892.224 270.818 892.078 269.628 891.693 268.506C891.308 267.384 890.691 266.355 889.884 265.486C889.076 264.617 888.095 263.927 887.004 263.461C885.913 262.995 884.736 262.763 883.55 262.78H603.17C600.67 262.805 598.27 263.765 596.443 265.472C594.616 267.179 593.495 269.508 593.3 272L869.06 469.95Z" fill="white"/>
<path d="M883.55 262.76C884.736 262.743 885.913 262.975 887.004 263.441C888.095 263.907 889.076 264.597 889.884 265.466C890.691 266.335 891.308 267.364 891.693 268.486C892.078 269.608 892.224 270.798 892.12 271.98L878.92 460.73C878.725 463.221 877.605 465.548 875.78 467.255C873.956 468.961 871.558 469.923 869.06 469.95H588.68C587.494 469.967 586.317 469.735 585.226 469.269C584.135 468.803 583.154 468.113 582.346 467.244C581.539 466.375 580.922 465.346 580.537 464.224C580.152 463.102 580.006 461.912 580.11 460.73L593.3 272C593.495 269.509 594.615 267.182 596.439 265.475C598.264 263.769 600.662 262.807 603.16 262.78H883.55V262.76ZM883.55 256.96H603.17C599.195 256.975 595.372 258.49 592.467 261.203C589.561 263.916 587.787 267.625 587.5 271.59L574.3 460.32C574.14 462.299 574.394 464.29 575.046 466.165C575.698 468.041 576.733 469.76 578.086 471.213C579.439 472.667 581.079 473.822 582.903 474.607C584.727 475.391 586.695 475.788 588.68 475.77H869.06C873.035 475.755 876.858 474.24 879.763 471.527C882.669 468.814 884.443 465.105 884.73 461.14L897.93 272.39C898.09 270.411 897.836 268.42 897.184 266.545C896.532 264.669 895.497 262.95 894.144 261.497C892.791 260.043 891.151 258.888 889.327 258.103C887.503 257.319 885.535 256.922 883.55 256.94V256.96Z" fill="#58595B"/>
<path d="M692.69 512.12H759C759.985 512.107 760.924 511.704 761.612 510.999C762.3 510.294 762.681 509.345 762.67 508.36L762.53 503.6L758.63 371.89C758.604 370.396 757.986 368.973 756.911 367.935C755.837 366.896 754.394 366.326 752.9 366.35H719.18C717.622 366.375 716.121 366.941 714.935 367.952C713.749 368.963 712.952 370.355 712.68 371.89L690.36 503.6L689.55 508.36C689.461 508.82 689.475 509.295 689.593 509.749C689.71 510.203 689.926 510.626 690.227 510.986C690.528 511.346 690.905 511.634 691.331 511.83C691.757 512.027 692.221 512.126 692.69 512.12V512.12Z" fill="#414042"/>
<path opacity="0.3" d="M1023.67 960.19C1032.75 960.19 1040.11 959.702 1040.11 959.1C1040.11 958.498 1032.75 958.01 1023.67 958.01C1014.59 958.01 1007.23 958.498 1007.23 959.1C1007.23 959.702 1014.59 960.19 1023.67 960.19Z" fill="black"/>
<path opacity="0.3" d="M1801.82 960.19C1810.9 960.19 1818.26 959.702 1818.26 959.1C1818.26 958.498 1810.9 958.01 1801.82 958.01C1792.74 958.01 1785.38 958.498 1785.38 959.1C1785.38 959.702 1792.74 960.19 1801.82 960.19Z" fill="black"/>
<path d="M1089.24 584.39H1736.24C1744.2 584.39 1751.83 587.551 1757.45 593.177C1763.08 598.803 1766.24 606.434 1766.24 614.39V750.51H1059.24V614.36C1059.24 606.403 1062.4 598.773 1068.03 593.147C1073.65 587.521 1081.28 584.36 1089.24 584.36V584.39Z" fill="#2A4361"/>
<path d="M1059.27 750.51H1766.22V764.25H1059.27V750.51Z" fill="#152231"/>
<path d="M1059.27 764.25H1766.22V852.4H1059.27V764.25Z" fill="black"/>
<path d="M1751.23 764.25H1074.26C1065.98 764.25 1059.27 770.961 1059.27 779.24V837.41C1059.27 845.689 1065.98 852.4 1074.26 852.4H1751.23C1759.51 852.4 1766.22 845.689 1766.22 837.41V779.24C1766.22 770.961 1759.51 764.25 1751.23 764.25Z" fill="#2A4361"/>
<path d="M1807.44 701.79H1766.22V852.4H1059.22V701.79H1018C1010.04 701.79 1002.41 704.951 996.787 710.577C991.161 716.203 988 723.833 988 731.79V902.49C988 906.901 989.752 911.13 992.871 914.249C995.99 917.368 1000.22 919.12 1004.63 919.12H1820.71C1825.12 919.12 1829.35 917.368 1832.47 914.249C1835.59 911.13 1837.34 906.901 1837.34 902.49V731.77C1837.33 723.834 1834.19 716.224 1828.58 710.605C1822.98 704.986 1815.38 701.816 1807.44 701.79V701.79Z" fill="#203249"/>
<path d="M1030.4 959.1H1017.23C1016.49 959.099 1015.76 958.848 1015.18 958.388C1014.59 957.927 1014.18 957.284 1014 956.56L1004.94 919.13H1042.41L1033.64 956.53C1033.47 957.261 1033.06 957.912 1032.47 958.379C1031.88 958.845 1031.15 959.099 1030.4 959.1Z" fill="#231F20"/>
<path d="M1808.55 959.1H1795.38C1794.64 959.099 1793.91 958.848 1793.33 958.388C1792.74 957.927 1792.33 957.284 1792.15 956.56L1783.09 919.13H1820.56L1811.79 956.53C1811.62 957.261 1811.21 957.912 1810.62 958.379C1810.03 958.845 1809.3 959.099 1808.55 959.1V959.1Z" fill="#231F20"/>
<path d="M187.01 525.64H205.78V968.41H187.01V525.64Z" fill="#363636"/>
<path d="M802.02 525.64H820.79V968.41H802.02V525.64Z" fill="#363636"/>
<path d="M149.07 512.12H858.73C859.937 512.12 861.094 512.599 861.947 513.453C862.801 514.306 863.28 515.463 863.28 516.67V517.58H144.51V516.67C144.51 516.072 144.628 515.479 144.857 514.926C145.087 514.374 145.423 513.872 145.846 513.449C146.27 513.026 146.773 512.692 147.326 512.464C147.879 512.235 148.472 512.119 149.07 512.12V512.12Z" fill="#A16241"/>
<path d="M861.42 515.58H146.37C141.736 515.58 137.98 519.336 137.98 523.97V527.32C137.98 531.954 141.736 535.71 146.37 535.71H861.42C866.054 535.71 869.81 531.954 869.81 527.32V523.97C869.81 519.336 866.054 515.58 861.42 515.58Z" fill="#C17850"/>
<path opacity="0.5" d="M196.4 973.75C230.277 973.75 257.74 973.222 257.74 972.57C257.74 971.918 230.277 971.39 196.4 971.39C162.523 971.39 135.06 971.918 135.06 972.57C135.06 973.222 162.523 973.75 196.4 973.75Z" fill="black"/>
<path opacity="0.5" d="M811.4 973.75C845.277 973.75 872.74 973.222 872.74 972.57C872.74 971.918 845.277 971.39 811.4 971.39C777.523 971.39 750.06 971.918 750.06 972.57C750.06 973.222 777.523 973.75 811.4 973.75Z" fill="black"/>
<path opacity="0.3" d="M1391.71 970.38C1403.71 970.38 1413.44 969.547 1413.44 968.52C1413.44 967.493 1403.71 966.66 1391.71 966.66C1379.71 966.66 1369.98 967.493 1369.98 968.52C1369.98 969.547 1379.71 970.38 1391.71 970.38Z" fill="black"/>
<path opacity="0.3" d="M1459.83 970.38C1471.83 970.38 1481.56 969.547 1481.56 968.52C1481.56 967.493 1471.83 966.66 1459.83 966.66C1447.83 966.66 1438.1 967.493 1438.1 968.52C1438.1 969.547 1447.83 970.38 1459.83 970.38Z" fill="black"/>
<path d="M1452.28 506.78C1443.96 510.981 1434.76 513.176 1425.44 513.19C1416.39 513.277 1407.47 511.071 1399.51 506.78C1403.51 501.02 1403 483.69 1402.45 474.57C1402.22 471.11 1401.99 468.83 1401.99 468.83C1401.99 468.83 1413.55 483.27 1425.89 483.05C1438.23 482.83 1449.8 468.83 1449.8 468.83C1449.8 468.83 1449.57 471.09 1449.36 474.55C1448.79 483.65 1448.29 501 1452.28 506.78V506.78Z" fill="#ECC19C"/>
<path d="M1390 444.77C1385.15 443.2 1383.94 440.15 1383.94 440.15C1383.94 440.15 1385.54 437.86 1387.46 434.6C1388 437.18 1388.91 440.81 1390 444.77Z" fill="#191410"/>
<path d="M1464.31 434.67C1463.72 437.34 1462.83 441.12 1461.64 445.23C1458.97 454.49 1454.91 465.38 1449.81 468.83C1449.81 468.83 1438.23 482.83 1425.9 483.06C1413.57 483.29 1402 468.83 1402 468.83C1396.82 465.31 1392.71 454.12 1390 444.77C1388.88 440.77 1388 437.18 1387.46 434.6C1387.79 434.02 1388.14 433.41 1388.46 432.78C1388.78 432.15 1389.24 431.39 1389.6 430.67C1391.93 426.13 1394.01 420.9 1393.6 417.25C1392.77 409.41 1396.7 402.4 1401.03 398.25C1405.36 394.1 1406.61 385.87 1406.61 385.87C1411.61 405.48 1425.61 405.46 1443.94 408.76C1462.27 412.06 1462.72 426.52 1462.72 430.64C1462.79 431.828 1463.18 432.976 1463.83 433.97C1464 434.24 1464.16 434.45 1464.31 434.67V434.67Z" fill="#ECC19C"/>
<path opacity="0.2" d="M1449.81 468.83C1449.81 468.83 1449.58 471.09 1449.37 474.55C1447.15 477.07 1436.81 488.08 1425.9 488.26C1414.99 488.44 1404.7 477.19 1402.46 474.57C1402.23 471.11 1402 468.83 1402 468.83C1402 468.83 1413.56 483.27 1425.9 483.05C1438.24 482.83 1449.81 468.83 1449.81 468.83Z" fill="#231F20"/>
<path d="M1469.45 440.16C1469.45 440.16 1467.96 443.94 1461.64 445.23C1462.83 441.12 1463.72 437.34 1464.31 434.67C1465.78 436.714 1467.51 438.559 1469.45 440.16V440.16Z" fill="#191410"/>
<path d="M1395.73 373.52C1395.73 373.52 1389.54 348.35 1368.91 357.02C1348.28 365.69 1350.14 394.57 1382.32 395.02L1395.73 373.52Z" fill="#130F0C"/>
<path d="M1456.88 373.52C1456.88 373.52 1463.07 348.35 1483.7 357.02C1504.33 365.69 1502.47 394.57 1470.29 395.02L1456.88 373.52Z" fill="#130F0C"/>
<path d="M1416.15 413.26C1416.1 412.892 1415.95 412.545 1415.72 412.253C1415.49 411.961 1415.19 411.736 1414.84 411.6C1411.96 410.4 1408.84 409.871 1405.72 410.053C1402.6 410.235 1399.56 411.123 1396.84 412.65C1387.03 418.18 1395.57 415.2 1395.57 415.2C1395.57 415.2 1403.06 410.52 1407.78 412.79C1411.9 414.77 1416.43 415.69 1416.15 413.26Z" fill="#130F0C"/>
<path d="M1436.84 413.26C1436.89 412.892 1437.04 412.545 1437.27 412.253C1437.5 411.961 1437.8 411.736 1438.15 411.6C1441.03 410.4 1444.15 409.871 1447.27 410.053C1450.39 410.235 1453.43 411.123 1456.15 412.65C1465.96 418.18 1457.42 415.2 1457.42 415.2C1457.42 415.2 1449.93 410.52 1445.21 412.79C1441.08 414.77 1436.56 415.69 1436.84 413.26Z" fill="#130F0C"/>
<path d="M1451 502.64C1451 502.64 1491 498.97 1506.58 523.34C1522.16 547.71 1530.11 631.67 1520.89 652.6C1511.67 673.53 1497.12 680.27 1497.12 680.27L1486.48 591.36C1486.48 591.36 1483.38 571.71 1481.25 578.27C1479.92 582.531 1479.03 586.917 1478.59 591.36H1374C1373.56 586.917 1372.67 582.531 1371.34 578.27C1369.21 571.71 1366.11 591.36 1366.11 591.36L1355.47 680.27C1355.47 680.27 1340.92 673.53 1331.7 652.6C1322.48 631.67 1330.4 547.7 1346.01 523.34C1361.62 498.98 1401.59 502.64 1401.59 502.64C1401.59 502.64 1412.03 512.81 1426.32 512.81C1440.61 512.81 1451 502.64 1451 502.64V502.64Z" fill="#0078D4"/>
<path d="M1439.49 962.6C1439.49 962.6 1437.83 945.69 1459.83 945.69C1481.83 945.69 1480.17 962.6 1480.17 962.6H1439.49Z" fill="#002D9C"/>
<path d="M1371.37 962.6C1371.37 962.6 1369.71 945.69 1391.71 945.69C1413.71 945.69 1412.05 962.6 1412.05 962.6H1371.37Z" fill="#002D9C"/>
<path d="M1400.08 367.18C1400.08 367.18 1388.92 364.65 1380.08 375.79C1371.24 386.93 1375.75 397.66 1380.08 400.55C1384.41 403.44 1402.77 376.21 1402.77 376.21L1400.08 367.18Z" fill="#6A0200"/>
<path d="M1453.08 367.18C1453.08 367.18 1464.24 364.65 1473.08 375.79C1481.92 386.93 1477.41 397.66 1473.08 400.55C1468.75 403.44 1450.39 376.21 1450.39 376.21L1453.08 367.18Z" fill="#6A0200"/>
<path d="M1469.45 440.16C1467.51 438.555 1465.79 436.707 1464.32 434.66C1464.17 434.45 1464.02 434.23 1463.89 434C1463.24 433.006 1462.85 431.858 1462.78 430.67C1462.78 426.54 1462.37 412.09 1444 408.79C1425.63 405.49 1411.62 405.51 1406.67 385.9C1406.67 385.9 1405.43 394.15 1401.09 398.28C1396.75 402.41 1392.84 409.42 1393.66 417.28C1394.04 420.93 1391.96 426.16 1389.66 430.7C1389.3 431.43 1388.9 432.14 1388.52 432.81C1388.14 433.48 1387.84 434.05 1387.52 434.63C1385.61 437.88 1384 440.18 1384 440.18C1384 440.18 1371.41 426.78 1378.64 398.31C1385.87 369.84 1405.56 360.96 1425.92 360.96H1427.55C1447.92 360.96 1467.62 369.84 1474.83 398.31C1482.04 426.78 1469.45 440.16 1469.45 440.16V440.16Z" fill="#130F0C"/>
<path opacity="0.2" d="M1426.78 764.44C1502.3 764.44 1563.53 762.698 1563.53 760.55C1563.53 758.402 1502.3 756.66 1426.78 756.66C1351.26 756.66 1290.03 758.402 1290.03 760.55C1290.03 762.698 1351.26 764.44 1426.78 764.44Z" fill="black"/>
<path d="M1383.32 758.14C1364.37 762.66 1353.01 771.83 1343.32 776.4C1330.32 782.51 1320.91 787.4 1322.68 776.4C1323.83 769.18 1336.41 758.66 1344.93 752.22C1356.11 754.11 1369.39 756.16 1383.36 758.14H1383.32Z" fill="white"/>
<path d="M1514.34 738.7C1516.34 740.043 1518.2 741.584 1519.89 743.3C1529.46 752.67 1547.65 755.8 1554.62 767.3C1555.26 768.406 1555.53 769.686 1555.4 770.957C1555.26 772.227 1554.73 773.422 1553.87 774.371C1553.02 775.32 1551.89 775.974 1550.64 776.24C1549.39 776.506 1548.09 776.369 1546.92 775.85C1527.58 767.779 1506.51 764.711 1485.67 766.93C1484.52 767.05 1483.29 767.14 1481.94 767.22C1462.25 768.22 1420.41 763.4 1383.36 758.14C1369.36 756.14 1356.12 754.14 1344.96 752.27C1328.77 749.62 1317.07 747.41 1314.27 746.51C1305.21 743.61 1275.76 726.39 1276.14 704.58C1276.35 698.845 1278.81 693.422 1282.98 689.48C1285.28 687.241 1287.91 685.369 1290.78 683.93H1290.9C1291.6 683.7 1295.78 682.31 1301.82 680.93C1313.88 678.05 1333.33 674.99 1347.42 680.7C1369.21 689.51 1450.42 708.39 1495.3 680.79C1495.35 680.748 1495.4 680.711 1495.46 680.68C1495.46 680.68 1542.06 654.11 1560.34 674.76C1578.62 695.41 1555.03 725.94 1527.9 734.6C1523.85 735.9 1519.33 737.34 1514.34 738.73" fill="black"/>
<path d="M1533.8 732.32C1528.25 729 1519.41 731.85 1514.62 733.2C1504.54 727.13 1495.08 729.46 1484.19 732.13L1481.33 732.83C1471.63 734.93 1451.74 732.93 1432.94 727.95C1426.04 726.182 1419.29 723.878 1412.75 721.06L1410.14 719.89C1412.56 719.21 1414.96 718.56 1417.32 717.89C1436.91 712.56 1455.41 707.53 1479.84 690.89L1478.25 688.54C1454.17 701.54 1435.11 707.6 1415.95 712.81C1411.69 713.97 1407.3 715.16 1402.83 716.49C1379.67 705.81 1339.22 686.49 1327.25 680.81C1323.11 678.752 1318.46 677.936 1313.86 678.46L1305.94 679.91C1309.8 680.71 1316.94 681.72 1325.01 685.52C1337.18 691.23 1378.53 711.04 1401.55 721.65L1402.45 722.06C1405.61 723.52 1408.39 724.78 1410.66 725.78C1417.46 728.71 1424.48 731.104 1431.66 732.94C1445.96 736.73 1460.57 738.81 1471.6 738.81C1475.27 738.855 1478.93 738.52 1482.53 737.81L1485.53 737.09C1496.43 734.41 1504.31 732.47 1512.87 738.09L1513.87 738.74L1515.01 738.42C1520.33 736.93 1525.27 735.32 1529.09 734.09L1533.8 732.32Z" fill="#414042"/>
<path d="M1533.76 693.72H1318.85C1318.63 693.72 1318.46 693.895 1318.46 694.11V696.32C1318.46 696.535 1318.63 696.71 1318.85 696.71H1533.76C1533.98 696.71 1534.15 696.535 1534.15 696.32V694.11C1534.15 693.895 1533.98 693.72 1533.76 693.72Z" fill="#808285"/>
<path d="M1336.29 693.72H1516.32V696.71H1336.29V693.72Z" fill="#414042"/>
<path d="M1339.5 693.51C1339.01 693.51 1338.54 693.316 1338.2 692.971C1337.85 692.626 1337.66 692.158 1337.66 691.67V584.23C1337.66 582.695 1338.27 581.224 1339.36 580.139C1340.44 579.054 1341.92 578.443 1343.45 578.44H1509.16C1510.69 578.443 1512.17 579.054 1513.25 580.139C1514.34 581.224 1514.95 582.695 1514.95 584.23V691.67C1514.95 692.158 1514.76 692.626 1514.41 692.971C1514.07 693.316 1513.6 693.51 1513.11 693.51H1339.5Z" fill="#808285"/>
<path d="M1509.16 579.79C1510.33 579.793 1511.46 580.26 1512.29 581.09C1513.12 581.921 1513.59 583.046 1513.59 584.22V691.67C1513.59 691.797 1513.54 691.919 1513.45 692.009C1513.36 692.099 1513.24 692.15 1513.11 692.15H1339.5C1339.37 692.15 1339.25 692.099 1339.16 692.009C1339.07 691.919 1339.02 691.797 1339.02 691.67V584.23C1339.02 583.056 1339.49 581.931 1340.32 581.1C1341.15 580.27 1342.28 579.803 1343.45 579.8H1509.16V579.79ZM1509.16 577.08H1343.45C1342.51 577.08 1341.58 577.265 1340.71 577.625C1339.84 577.985 1339.05 578.512 1338.39 579.177C1337.72 579.842 1337.19 580.631 1336.84 581.5C1336.48 582.369 1336.29 583.3 1336.29 584.24V691.67C1336.29 692.519 1336.63 693.333 1337.23 693.933C1337.83 694.533 1338.64 694.87 1339.49 694.87H1513.11C1513.96 694.87 1514.77 694.533 1515.37 693.933C1515.97 693.333 1516.31 692.519 1516.31 691.67V584.23C1516.31 582.331 1515.56 580.51 1514.21 579.167C1512.87 577.824 1511.05 577.07 1509.15 577.07L1509.16 577.08Z" fill="#58595B"/>
<path opacity="0.03" d="M1512 691.55L1339.62 586.69V584.21C1339.62 583.708 1339.72 583.212 1339.91 582.748C1340.1 582.285 1340.38 581.864 1340.74 581.509C1341.09 581.154 1341.51 580.873 1341.98 580.681C1342.44 580.489 1342.94 580.39 1343.44 580.39H1509.14C1509.65 580.39 1510.15 580.49 1510.62 580.686C1511.09 580.881 1511.52 581.167 1511.88 581.528C1512.24 581.888 1512.52 582.316 1512.71 582.787C1512.9 583.257 1513 583.761 1513 584.27V690.68C1513 690.794 1512.98 690.907 1512.93 691.013C1512.89 691.118 1512.83 691.214 1512.75 691.295C1512.66 691.376 1512.57 691.44 1512.46 691.484C1512.36 691.527 1512.24 691.55 1512.13 691.55H1512Z" fill="white"/>
<path d="M1546.92 775.86C1527.58 767.79 1506.52 764.722 1485.68 766.94C1484.53 767.06 1483.3 767.15 1481.95 767.23V738L1482.54 737.86C1497.1 734.33 1507.31 730.95 1519.89 743.24C1529.47 752.61 1547.66 755.74 1554.62 767.24C1555.28 768.347 1555.56 769.634 1555.44 770.915C1555.31 772.195 1554.79 773.403 1553.93 774.363C1553.07 775.323 1551.93 775.986 1550.67 776.255C1549.42 776.524 1548.1 776.386 1546.93 775.86H1546.92Z" fill="white"/>
</g>
<defs>
<clipPath id="clip0">
<rect width="1920" height="1080" fill="white"/>
</clipPath>
</defs>
</svg>
